<svg version="1.2" xmlns="http://www.w3.org/2000/svg" viewBox="0 0 430 430" width="430" height="430">
	<style>
		.s0 { fill: #000000 } 
	</style>
	<path class="s0" d="m139.2 81q5.3-2.8 10.8-4.8 5.5-2.1 11.3-3.5 5.7-1.4 11.6-2.1 5.9-0.7 11.8-0.6 50.4 0 64.2 43.8 3.9-4.7 8.3-9 4.4-4.3 9.1-8.2 4.7-3.9 9.8-7.4 5-3.5 10.3-6.5 22.2-12.7 49.4-12.7 37.8 0 54 23.1 16.2 23.1 16.2 69.3v174q0 6.5 1.8 8.9c1.2 1.5 3.9 3 8 4.1l14.2 4.7v10.7h-84.5q-11 0-15.8-8.3-4.8-8.3-4.9-24.9v-179.9q0-26.6-5.9-37.8-5.9-11.3-19.7-11.3-21.9 0-46.7 26 0.7 4.2 1.2 8.4 0.4 4.2 0.8 8.4 0.3 4.3 0.4 8.5 0.1 4.2 0.1 8.5v174q0 6.5 1.8 8.9c1.2 1.5 3.9 3 8 4.1l14.2 4.7v10.7h-84.5q-11 0-15.9-8.3-4.8-8.3-4.8-24.9v-179.9q0-26.6-5.9-37.8-5.9-11.3-19.7-11.3-21.6 0-44.3 23.7v210.1q0 6.5 1.8 9.2 1.9 2.6 7.6 4.4l13.8 4.1v10.7h-128.4v-10.7l14.2-4.7q6.1-1.8 8-4.1 1.8-2.4 1.8-8.9v-223.7q0-6.5-1.8-8.9-1.9-2.4-8-4.2l-14.2-4.7v-10.6l97.5-17.8h6.9v41.4q3.9-4 8.2-7.8 4.3-3.7 8.8-7.1 4.5-3.4 9.3-6.4 4.8-3 9.8-5.6z"/>
</svg>